<svg width="14" height="16" viewBox="0 0 14 16" fill="none" xmlns="http://www.w3.org/2000/svg">
<path d="M6.66146 15.0477C6.53733 14.2524 6.21007 13.3959 5.67969 12.4783C5.14931 11.5484 4.39323 10.6858 3.41146 9.89052C2.44097 9.09522 1.47049 8.58746 0.5 8.36722V7.5964C1.4592 7.3517 2.37891 6.89899 3.25911 6.23828C4.15061 5.56534 4.8954 4.75781 5.49349 3.81569C6.10286 2.84911 6.49219 1.89475 6.66146 0.952637H7.3724C7.47396 1.5644 7.67708 2.19452 7.98177 2.84299C8.28646 3.47922 8.67578 4.09099 9.14974 4.67828C9.63498 5.25334 10.1767 5.77334 10.7747 6.23828C11.6662 6.92346 12.5747 7.37617 13.5 7.5964V8.36722C12.8793 8.50181 12.2361 8.77711 11.5703 9.19311C10.9158 9.60911 10.3064 10.1046 9.74219 10.6797C9.17795 11.2425 8.71528 11.8359 8.35417 12.4599C7.82378 13.3776 7.49653 14.2402 7.3724 15.0477H6.66146Z" fill="white"/>
</svg>
