<svg width="26" height="26" viewBox="0 0 26 26" fill="none" xmlns="http://www.w3.org/2000/svg">
<path d="M2.40576 0.518555C3.41442 0.670982 4.40332 0.944856 5.3501 1.33691C6.88184 1.97128 8.27442 2.90109 9.44678 4.07324C10.6191 5.24541 11.5486 6.63744 12.1831 8.16895C12.8176 9.70048 13.144 11.3423 13.144 13C13.144 14.6575 12.8175 16.2987 12.1831 17.8301C11.5486 19.3616 10.6191 20.7536 9.44678 21.9258C8.27441 23.098 6.88187 24.0277 5.3501 24.6621C4.40326 25.0542 3.41449 25.329 2.40576 25.4814C1.3716 25.6377 0.519043 24.7752 0.519043 23.7295V2.26953C0.519231 1.22394 1.37171 0.362295 2.40576 0.518555Z" fill="#FFBF48"/>
<path d="M23.8823 0.518555C24.9164 0.362279 25.769 1.22477 25.769 2.27051V23.7305C25.769 24.7762 24.9165 25.6387 23.8823 25.4824C22.8736 25.33 21.8848 25.0552 20.938 24.6631C19.4063 24.0287 18.0146 23.0989 16.8423 21.9268C15.6699 20.7545 14.7394 19.3626 14.105 17.8311C13.4707 16.2997 13.1441 14.6584 13.144 13.001C13.144 11.3433 13.4706 9.70142 14.105 8.16992C14.7394 6.63836 15.6699 5.24643 16.8423 4.07422C18.0146 2.90209 19.4063 1.97225 20.938 1.33789C21.8848 0.945755 22.8736 0.671018 23.8823 0.518555Z" fill="#F2F8FF"/>
<path d="M23.4953 5.71911C23.4953 6.83466 22.5909 7.739 21.4754 7.739C20.3598 7.739 19.4555 6.83466 19.4555 5.71911C19.4555 4.60355 20.3598 3.69922 21.4754 3.69922C22.5909 3.69922 23.4953 4.60355 23.4953 5.71911Z" fill="#2F5176"/>
</svg>
