<svg width="101" height="100" viewBox="0 0 101 100" fill="none" xmlns="http://www.w3.org/2000/svg">
<path d="M74.6161 50.8834C75.1043 50.3952 75.8957 50.3952 76.3839 50.8834L98.3661 72.8656C99.1536 73.6531 98.5959 74.9995 97.4822 74.9995H53.5178C52.4041 74.9995 51.8464 73.6531 52.6339 72.8656L74.6161 50.8834Z" fill="#D6E3F3"/>
<path d="M74.0858 76.4137C74.5808 75.9187 74.8283 75.6712 75.1137 75.5785C75.3648 75.4969 75.6352 75.4969 75.8863 75.5785C76.1717 75.6712 76.4192 75.9187 76.9142 76.4137L97.0858 96.5853C98.1567 97.6562 98.6922 98.1917 98.7284 98.6514C98.7598 99.0503 98.5983 99.4402 98.2941 99.7C97.9434 99.9995 97.1861 99.9995 95.6716 99.9995H55.3284C53.8139 99.9995 53.0566 99.9995 52.706 99.7C52.4017 99.4402 52.2402 99.0503 52.2716 98.6514C52.3078 98.1917 52.8433 97.6562 53.9142 96.5853L74.0858 76.4137Z" fill="#D6E3F3"/>
<path d="M50.5 96.25C50.5 98.3211 48.8187 100.015 46.7535 99.8594C41.4702 99.4624 36.2754 98.2276 31.3658 96.194C25.2995 93.6812 19.7876 89.9983 15.1447 85.3553C10.5017 80.7124 6.81875 75.2004 4.30602 69.1342C2.27242 64.2246 1.03755 59.0298 0.640554 53.7465C0.485372 51.6813 2.17893 50 4.25 50L46.75 50C48.8211 50 50.5 51.6789 50.5 53.75L50.5 96.25Z" fill="#2F5176"/>
<path d="M75.5 3.75C75.5 1.67893 77.1882 -0.0287754 79.236 0.280726C81.2337 0.582652 83.192 1.12632 85.0671 1.90301C88.1002 3.15938 90.8562 5.00086 93.1777 7.32233C95.4991 9.64379 97.3406 12.3998 98.597 15.4329C99.8534 18.4661 100.5 21.717 100.5 25C100.5 28.283 99.8534 31.5339 98.597 34.5671C97.3406 37.6002 95.4991 40.3562 93.1777 42.6777C90.8562 44.9991 88.1002 46.8406 85.0671 48.097C83.192 48.8737 81.2337 49.4173 79.236 49.7193C77.1882 50.0288 75.5 48.3211 75.5 46.25L75.5 25L75.5 3.75Z" fill="#619AD8"/>
<path d="M50.5 0.000488281C50.5 -5.10593e-05 50.5005 -0.000488283 50.501 -0.000488262C53.7837 -0.000357796 57.0346 0.646591 60.0674 1.90283C63.1004 3.15917 65.8564 5.00045 68.1777 7.32178C70.4992 9.64324 72.3403 12.4 73.5967 15.4331C74.853 18.4661 75.5 21.7166 75.5 24.9995C75.5 28.2826 74.8531 31.5338 73.5967 34.5669C72.3404 37.5999 70.4991 40.3558 68.1777 42.6772C65.8563 44.9987 63.1005 46.8408 60.0674 48.0972C57.0344 49.3535 53.7834 49.9994 50.5005 49.9995C50.5002 49.9995 50.5 49.9997 50.5 50C50.5 50.0003 50.4998 50.0005 50.4995 50.0005H0.500015C28.114 50.0005 50.4996 27.6143 50.5 0.000488281Z" fill="#97BAE0"/>
<circle cx="13" cy="12.5" r="12.5" fill="#FFBF48"/>
</svg>
